# xmcd CD database file
#
# Track frame offsets:
#	150
#	26312
#	49990
#	80292
#	110867
#	136352
#	155582
#	191702
#	210340
#	247035
#	265272
#	283370
#	308727
#
# Disc length: 4427 seconds
#
# Revision: 0
# Processed by: cddbd v1.5.1PL0 Copyright (c) Steve Scherf et al.
# Submitted via: CDex 1.51
#
DISCID=be11490d
DTITLE=Friction - Zone Tripper
DYEAR=1999
DGENRE=Rock
TTITLE0=Zone Tripper (Audio Active Remix)
TTITLE1=Highlife
TTITLE2=Break Neck (Audio Active Remix)
TTITLE3=Red Light Dumb
TTITLE4=Choke
TTITLE5=Missing Kissing
TTITLE6=The Heavy Cut (Tanaka Fumiya Remix)
TTITLE7=Mind Bind
TTITLE8=Zone Tripper (Tanaka Fumiya Remix)
TTITLE9=Break Neck
TTITLE10=Money Laugh
TTITLE11=Head Out Head Start
TTITLE12=Zone Tripper
EXTD=YEAR: 1999
EXTT0=
EXTT1=
EXTT2=
EXTT3=
EXTT4=
EXTT5=
EXTT6=
EXTT7=
EXTT8=
EXTT9=
EXTT10=
EXTT11=
EXTT12=
PLAYORDER=
